<svg xmlns="http://www.w3.org/2000/svg" xmlns:xlink="http://www.w3.org/1999/xlink" width="120" zoomAndPan="magnify" viewBox="0 0 90 30.000001" height="40" preserveAspectRatio="xMidYMid meet" version="1.0"><defs><g/><clipPath id="e873790717"><path d="M 1.453125 0 L 88.546875 0 L 88.546875 29.03125 L 1.453125 29.03125 Z M 1.453125 0 " clip-rule="nonzero"/></clipPath></defs><g clip-path="url(#e873790717)"><path fill="#ffffff" d="M 1.453125 0 L 88.546875 0 L 88.546875 29.03125 L 1.453125 29.03125 Z M 1.453125 0 " fill-opacity="1" fill-rule="nonzero"/><path fill="#cea47e" d="M 1.453125 0 L 88.546875 0 L 88.546875 29.03125 L 1.453125 29.03125 Z M 1.453125 0 " fill-opacity="1" fill-rule="nonzero"/></g><g fill="#454a64" fill-opacity="1"><g transform="translate(10.194217, 20.583869)"><g><path d="M 16.109375 -16.191406 C 15.597656 -16.191406 14.875 -15.96875 13.394531 -15.96875 C 11.976562 -15.96875 11.109375 -16.132812 9.199219 -16.132812 C 3.785156 -16.132812 0.800781 -13.640625 0.800781 -10.71875 C 0.800781 -9.21875 1.6875 -7.859375 3.375 -7.859375 C 5.371094 -7.859375 6.441406 -9.628906 6.070312 -10.535156 C 5.617188 -10.535156 5.289062 -10.945312 5.289062 -11.5 C 5.289062 -12.820312 6.933594 -13.375 8.765625 -13.375 C 11.109375 -13.375 11.726562 -12.304688 13.664062 -12.304688 C 15.761719 -12.304688 16.914062 -13.765625 16.914062 -15.347656 C 16.914062 -15.90625 16.726562 -16.191406 16.109375 -16.191406 Z M 12.757812 -8.519531 C 12.304688 -8.519531 11.625 -8.496094 10.742188 -8.476562 C 11.027344 -9.320312 11.316406 -10.183594 11.605469 -11.109375 C 11.832031 -11.789062 11.5625 -12.222656 10.660156 -12.222656 C 10.039062 -12.222656 9.589844 -11.953125 9.320312 -11.234375 C 8.972656 -10.371094 8.621094 -9.382812 8.269531 -8.4375 L 7.40625 -8.4375 C 6.5625 -8.4375 6.191406 -7.984375 6.191406 -7.386719 C 6.191406 -6.953125 6.398438 -6.625 6.894531 -6.625 C 7.078125 -6.625 7.261719 -6.605469 7.46875 -6.585938 C 6.441406 -4.875 5.042969 -4.175781 3.972656 -4.175781 C 2.796875 -4.175781 2.015625 -4.792969 2.015625 -5.699219 C 2.015625 -5.84375 1.871094 -5.945312 1.707031 -5.945312 C 0.0625 -5.945312 -1.027344 -4.28125 -1.027344 -2.59375 C -1.027344 -0.882812 0.101562 0.863281 2.964844 0.863281 C 5.535156 0.863281 7.738281 -0.84375 9.300781 -4.589844 C 9.527344 -5.101562 9.730469 -5.636719 9.917969 -6.171875 C 10.453125 -6.109375 11.027344 -6.070312 11.6875 -6.070312 C 13.128906 -6.070312 13.765625 -7.058594 13.765625 -7.757812 C 13.765625 -8.1875 13.578125 -8.519531 12.757812 -8.519531 Z M 12.757812 -8.519531 "/></g></g></g><g fill="#454a64" fill-opacity="1"><g transform="translate(23.938059, 20.583869)"><g><path d="M 10.265625 -5.636719 C 9.773438 -4.917969 9.21875 -4.628906 8.621094 -4.628906 L 8.476562 -4.628906 C 8.683594 -5.308594 8.785156 -6.027344 8.785156 -6.75 C 8.785156 -9.339844 7.46875 -10.289062 5.78125 -10.289062 C 2.511719 -10.289062 0.125 -6.542969 0.125 -3.457031 C 0.125 -1.316406 1.460938 0 3.3125 0 C 4.855469 0 6.316406 -0.90625 7.34375 -2.304688 L 7.59375 -2.304688 C 9.589844 -2.304688 10.597656 -3.867188 11.191406 -5.125 C 11.417969 -5.597656 10.515625 -5.988281 10.265625 -5.636719 Z M 4.484375 -4.257812 C 3.703125 -4.257812 3.414062 -4.773438 3.414062 -5.371094 C 3.414062 -6.277344 4.09375 -7.285156 5.101562 -7.285156 C 5.90625 -7.285156 6.234375 -6.789062 6.234375 -6.191406 C 6.234375 -5.328125 5.515625 -4.257812 4.484375 -4.257812 Z M 4.484375 -4.257812 "/></g></g></g><g fill="#454a64" fill-opacity="1"><g transform="translate(33.731576, 20.583869)"><g><path d="M 8.601562 -5.636719 C 8.1875 -5.019531 7.796875 -4.589844 7.179688 -4.589844 C 6.253906 -4.589844 5.90625 -5.019531 5.90625 -5.597656 C 5.90625 -6.871094 6.789062 -7.738281 6.789062 -8.910156 C 6.789062 -10.019531 4.816406 -11.335938 2.878906 -11.335938 C 1.769531 -11.335938 1.050781 -10.328125 1.050781 -9.484375 C 1.050781 -8.746094 1.316406 -8.476562 1.726562 -8.332031 C 1.378906 -7.386719 0.863281 -6.191406 0.472656 -5.636719 C 0.207031 -5.246094 1.132812 -4.589844 1.398438 -5.125 C 1.726562 -5.800781 2.40625 -7.203125 2.777344 -8.023438 C 3.601562 -7.714844 3.867188 -7.203125 3.867188 -6.996094 C 3.867188 -6.007812 2.429688 -4.074219 2.429688 -2.160156 C 2.429688 -1.109375 3.003906 0 4.691406 0 C 7.46875 0 8.867188 -3.992188 9.527344 -5.125 C 9.753906 -5.515625 8.929688 -6.132812 8.601562 -5.636719 Z M 8.601562 -5.636719 "/></g></g></g><g fill="#454a64" fill-opacity="1"><g transform="translate(41.858548, 20.583869)"><g><path d="M 2.179688 0 C 3.640625 0 4.875 -1.335938 5.699219 -3.003906 L 5.78125 -3.003906 C 5.535156 -1.296875 6.132812 0 7.550781 0 C 9.835938 0 10.96875 -3.210938 11.976562 -5.125 C 12.179688 -5.515625 11.359375 -6.132812 11.050781 -5.636719 C 10.636719 -4.980469 10.125 -4.589844 9.421875 -4.589844 C 8.519531 -4.589844 8.292969 -5.410156 8.992188 -6.914062 C 9.445312 -8.105469 9.980469 -8.746094 9.980469 -9.527344 C 9.980469 -9.980469 9.792969 -10.289062 9.257812 -10.289062 C 8.292969 -10.289062 8.148438 -9.507812 7.46875 -9.507812 C 6.933594 -9.507812 7.015625 -10.289062 5.371094 -10.289062 C 1.832031 -10.289062 0.0625 -5.96875 0.0625 -3.105469 C 0.0625 -1.277344 0.78125 0 2.179688 0 Z M 4.238281 -4.257812 C 3.601562 -4.257812 3.210938 -4.671875 3.210938 -5.371094 C 3.210938 -6.277344 3.890625 -7.285156 4.957031 -7.285156 C 5.617188 -7.285156 6.027344 -6.871094 6.027344 -6.191406 C 6.027344 -5.328125 5.308594 -4.257812 4.238281 -4.257812 Z M 4.238281 -4.257812 "/></g></g></g><g fill="#454a64" fill-opacity="1"><g transform="translate(52.433901, 20.583869)"><g><path d="M 10.863281 -5.636719 C 10.265625 -4.773438 9.484375 -3.847656 8.867188 -3.847656 C 8.394531 -3.847656 8.023438 -4.21875 8.3125 -5.308594 C 9.15625 -7.796875 9.980469 -8.765625 9.980469 -9.527344 C 9.980469 -9.980469 9.792969 -10.289062 9.257812 -10.289062 C 8.292969 -10.289062 8.148438 -9.507812 7.46875 -9.507812 C 6.933594 -9.507812 7.015625 -10.289062 5.371094 -10.289062 C 1.832031 -10.289062 0.0625 -5.96875 0.0625 -2.921875 C 0.0625 -1.378906 0.988281 -0.183594 2.40625 -0.183594 C 3.457031 -0.183594 4.628906 -1.070312 5.183594 -2.488281 C 5.371094 -2.902344 5.742188 -2.902344 5.742188 -2.550781 C 5.742188 -0.742188 4.054688 1.296875 2.160156 1.316406 C 0.78125 1.296875 -0.0625 0.617188 -0.164062 -0.410156 C -0.207031 -0.824219 -1.667969 0.0820312 -1.667969 2.179688 C -1.667969 4.15625 -0.433594 5.371094 1.75 5.371094 C 4.09375 5.371094 5.617188 3.765625 6.933594 -0.453125 C 7.097656 -0.164062 7.34375 0 7.652344 0 C 9.648438 0 10.597656 -2.613281 11.789062 -5.125 C 12.015625 -5.597656 11.109375 -5.988281 10.863281 -5.636719 Z M 4.28125 -4.257812 C 3.496094 -4.257812 3.210938 -4.773438 3.210938 -5.371094 C 3.210938 -6.277344 3.890625 -7.285156 4.898438 -7.285156 C 5.699219 -7.285156 6.027344 -6.789062 6.027344 -6.191406 C 6.027344 -5.328125 5.308594 -4.257812 4.28125 -4.257812 Z M 4.28125 -4.257812 "/></g></g></g><g fill="#454a64" fill-opacity="1"><g transform="translate(62.824079, 20.583869)"><g><path d="M 3.867188 0 C 6.253906 0 8.4375 -1.769531 10.246094 -5.125 C 10.472656 -5.515625 9.648438 -6.132812 9.320312 -5.636719 C 8.394531 -4.21875 6.726562 -3.496094 5.328125 -3.496094 C 4.15625 -3.496094 3.1875 -3.867188 3.1875 -4.589844 C 3.1875 -4.855469 3.394531 -4.917969 3.539062 -4.835938 C 4.011719 -4.566406 4.566406 -4.507812 5.144531 -4.507812 C 7.160156 -4.507812 8.457031 -6.191406 8.457031 -7.695312 C 8.457031 -9.054688 7.613281 -10.289062 5.699219 -10.289062 C -0.207031 -10.289062 -1.914062 0 3.867188 0 Z M 4.609375 -6.050781 C 3.949219 -6.050781 3.640625 -6.441406 3.640625 -6.894531 C 3.640625 -7.449219 4.136719 -8.046875 4.9375 -8.046875 C 5.574219 -8.046875 5.882812 -7.652344 5.882812 -7.203125 C 5.882812 -6.6875 5.410156 -6.050781 4.609375 -6.050781 Z M 4.609375 -6.050781 "/></g></g></g><g fill="#454a64" fill-opacity="1"><g transform="translate(71.671165, 20.583869)"><g><path d="M 8.601562 -5.636719 C 8.1875 -5.019531 7.796875 -4.589844 7.179688 -4.589844 C 6.253906 -4.589844 5.90625 -5.019531 5.90625 -5.597656 C 5.90625 -6.871094 6.789062 -7.738281 6.789062 -8.910156 C 6.789062 -10.019531 4.816406 -11.335938 2.878906 -11.335938 C 1.769531 -11.335938 1.050781 -10.328125 1.050781 -9.484375 C 1.050781 -8.746094 1.316406 -8.476562 1.726562 -8.332031 C 1.378906 -7.386719 0.863281 -6.191406 0.472656 -5.636719 C 0.207031 -5.246094 1.132812 -4.589844 1.398438 -5.125 C 1.726562 -5.800781 2.40625 -7.203125 2.777344 -8.023438 C 3.601562 -7.714844 3.867188 -7.203125 3.867188 -6.996094 C 3.867188 -6.007812 2.429688 -4.074219 2.429688 -2.160156 C 2.429688 -1.109375 3.003906 0 4.691406 0 C 7.46875 0 8.867188 -3.992188 9.527344 -5.125 C 9.753906 -5.515625 8.929688 -6.132812 8.601562 -5.636719 Z M 8.601562 -5.636719 "/></g></g></g></svg>