<svg xmlns="http://www.w3.org/2000/svg" xmlns:xlink="http://www.w3.org/1999/xlink" width="900" zoomAndPan="magnify" viewBox="0 0 675 225" height="300" preserveAspectRatio="xMidYMid meet" version="1.0"><defs><g/></defs><g fill="#454a64" fill-opacity="1"><g transform="translate(67.755192, 142.355088)"><g><path d="M 124.859375 -125.496094 C 120.871094 -125.496094 115.292969 -123.742188 103.808594 -123.742188 C 92.808594 -123.742188 86.109375 -125.019531 71.28125 -125.019531 C 29.339844 -125.019531 6.21875 -105.722656 6.21875 -83.078125 C 6.21875 -71.4375 13.074219 -60.914062 26.152344 -60.914062 C 41.621094 -60.914062 49.910156 -74.628906 47.042969 -81.644531 C 43.535156 -81.644531 40.980469 -84.832031 40.980469 -89.140625 C 40.980469 -99.34375 53.738281 -103.652344 67.929688 -103.652344 C 86.109375 -103.652344 90.894531 -95.359375 105.882812 -95.359375 C 122.148438 -95.359375 131.078125 -106.679688 131.078125 -118.957031 C 131.078125 -123.265625 129.644531 -125.496094 124.859375 -125.496094 Z M 98.867188 -66.015625 C 95.359375 -66.015625 90.097656 -65.859375 83.238281 -65.699219 C 85.472656 -72.238281 87.703125 -78.933594 89.9375 -86.109375 C 91.691406 -91.371094 89.617188 -94.71875 82.601562 -94.71875 C 77.816406 -94.71875 74.308594 -92.648438 72.238281 -87.066406 C 69.527344 -80.367188 66.816406 -72.714844 64.105469 -65.378906 L 57.40625 -65.378906 C 50.867188 -65.378906 48 -61.871094 48 -57.246094 C 48 -53.898438 49.59375 -51.347656 53.417969 -51.347656 C 54.855469 -51.347656 56.289062 -51.1875 57.886719 -51.027344 C 49.910156 -37.792969 39.066406 -32.371094 30.777344 -32.371094 C 21.6875 -32.371094 15.628906 -37.15625 15.628906 -44.171875 C 15.628906 -45.289062 14.511719 -46.085938 13.234375 -46.085938 C 0.476562 -46.085938 -7.972656 -33.167969 -7.972656 -20.09375 C -7.972656 -6.855469 0.796875 6.699219 22.960938 6.699219 C 42.894531 6.699219 59.957031 -6.539062 72.078125 -35.558594 C 73.832031 -39.546875 75.425781 -43.691406 76.859375 -47.839844 C 81.007812 -47.359375 85.472656 -47.042969 90.574219 -47.042969 C 101.738281 -47.042969 106.679688 -54.695312 106.679688 -60.117188 C 106.679688 -63.464844 105.246094 -66.015625 98.867188 -66.015625 Z M 98.867188 -66.015625 "/></g></g></g><g fill="#454a64" fill-opacity="1"><g transform="translate(174.269972, 142.355088)"><g><path d="M 79.570312 -43.691406 C 75.746094 -38.113281 71.4375 -35.878906 66.816406 -35.878906 L 65.699219 -35.878906 C 67.292969 -41.140625 68.089844 -46.722656 68.089844 -52.304688 C 68.089844 -72.394531 57.886719 -79.730469 44.808594 -79.730469 C 19.453125 -79.730469 0.957031 -50.710938 0.957031 -26.789062 C 0.957031 -10.207031 11.320312 0 25.671875 0 C 37.632812 0 48.953125 -7.015625 56.929688 -17.859375 L 58.839844 -17.859375 C 74.308594 -17.859375 82.125 -29.980469 86.746094 -39.707031 C 88.5 -43.375 81.484375 -46.402344 79.570312 -43.691406 Z M 34.761719 -33.007812 C 28.703125 -33.007812 26.472656 -36.996094 26.472656 -41.621094 C 26.472656 -48.636719 31.734375 -56.449219 39.546875 -56.449219 C 45.765625 -56.449219 48.316406 -52.621094 48.316406 -48 C 48.316406 -41.300781 42.734375 -33.007812 34.761719 -33.007812 Z M 34.761719 -33.007812 "/></g></g></g><g fill="#454a64" fill-opacity="1"><g transform="translate(250.169726, 142.355088)"><g><path d="M 66.65625 -43.691406 C 63.464844 -38.910156 60.4375 -35.558594 55.652344 -35.558594 C 48.476562 -35.558594 45.765625 -38.910156 45.765625 -43.375 C 45.765625 -53.261719 52.621094 -59.957031 52.621094 -69.046875 C 52.621094 -77.65625 37.3125 -87.863281 22.324219 -87.863281 C 13.714844 -87.863281 8.132812 -80.050781 8.132812 -73.511719 C 8.132812 -67.773438 10.207031 -65.699219 13.394531 -64.582031 C 10.683594 -57.246094 6.699219 -48 3.667969 -43.691406 C 1.59375 -40.664062 8.769531 -35.558594 10.84375 -39.707031 C 13.394531 -44.96875 18.65625 -55.8125 21.527344 -62.191406 C 27.90625 -59.796875 29.980469 -55.8125 29.980469 -54.21875 C 29.980469 -46.5625 18.816406 -31.574219 18.816406 -16.742188 C 18.816406 -8.609375 23.28125 0 36.355469 0 C 57.886719 0 68.726562 -30.9375 73.832031 -39.707031 C 75.585938 -42.734375 69.207031 -47.519531 66.65625 -43.691406 Z M 66.65625 -43.691406 "/></g></g></g><g fill="#454a64" fill-opacity="1"><g transform="translate(313.153767, 142.355088)"><g><path d="M 16.902344 0 C 28.226562 0 37.792969 -10.363281 44.171875 -23.28125 L 44.808594 -23.28125 C 42.894531 -10.046875 47.519531 0 58.523438 0 C 76.222656 0 84.992188 -24.875 92.808594 -39.707031 C 94.402344 -42.734375 88.023438 -47.519531 85.632812 -43.691406 C 82.441406 -38.589844 78.457031 -35.558594 73.035156 -35.558594 C 66.015625 -35.558594 64.261719 -41.9375 69.683594 -53.578125 C 73.191406 -62.828125 77.339844 -67.773438 77.339844 -73.832031 C 77.339844 -77.339844 75.902344 -79.730469 71.757812 -79.730469 C 64.261719 -79.730469 63.148438 -73.671875 57.886719 -73.671875 C 53.738281 -73.671875 54.375 -79.730469 41.621094 -79.730469 C 14.191406 -79.730469 0.476562 -46.242188 0.476562 -24.078125 C 0.476562 -9.886719 6.058594 0 16.902344 0 Z M 32.847656 -33.007812 C 27.90625 -33.007812 24.875 -36.199219 24.875 -41.621094 C 24.875 -48.636719 30.136719 -56.449219 38.429688 -56.449219 C 43.535156 -56.449219 46.722656 -53.261719 46.722656 -48 C 46.722656 -41.300781 41.140625 -33.007812 32.847656 -33.007812 Z M 32.847656 -33.007812 "/></g></g></g><g fill="#454a64" fill-opacity="1"><g transform="translate(395.112752, 142.355088)"><g><path d="M 84.195312 -43.691406 C 79.570312 -36.996094 73.511719 -29.820312 68.726562 -29.820312 C 65.0625 -29.820312 62.191406 -32.691406 64.421875 -41.140625 C 70.960938 -60.4375 77.339844 -67.929688 77.339844 -73.832031 C 77.339844 -77.339844 75.902344 -79.730469 71.757812 -79.730469 C 64.261719 -79.730469 63.148438 -73.671875 57.886719 -73.671875 C 53.738281 -73.671875 54.375 -79.730469 41.621094 -79.730469 C 14.191406 -79.730469 0.476562 -46.242188 0.476562 -22.644531 C 0.476562 -10.683594 7.652344 -1.433594 18.65625 -1.433594 C 26.789062 -1.433594 35.878906 -8.292969 40.183594 -19.296875 C 41.621094 -22.484375 44.488281 -22.484375 44.488281 -19.773438 C 44.488281 -5.742188 31.414062 10.046875 16.742188 10.207031 C 6.058594 10.046875 -0.476562 4.785156 -1.277344 -3.1875 C -1.59375 -6.378906 -12.917969 0.636719 -12.917969 16.902344 C -12.917969 32.210938 -3.347656 41.621094 13.554688 41.621094 C 31.734375 41.621094 43.535156 29.179688 53.738281 -3.507812 C 55.015625 -1.277344 56.929688 0 59.320312 0 C 74.789062 0 82.125 -20.25 91.371094 -39.707031 C 93.125 -43.375 86.109375 -46.402344 84.195312 -43.691406 Z M 33.167969 -33.007812 C 27.109375 -33.007812 24.875 -36.996094 24.875 -41.621094 C 24.875 -48.636719 30.136719 -56.449219 37.953125 -56.449219 C 44.171875 -56.449219 46.722656 -52.621094 46.722656 -48 C 46.722656 -41.300781 41.140625 -33.007812 33.167969 -33.007812 Z M 33.167969 -33.007812 "/></g></g></g><g fill="#454a64" fill-opacity="1"><g transform="translate(475.636638, 142.355088)"><g><path d="M 29.980469 0 C 48.476562 0 65.378906 -13.714844 79.414062 -39.707031 C 81.167969 -42.734375 74.789062 -47.519531 72.238281 -43.691406 C 65.0625 -32.691406 52.144531 -27.109375 41.300781 -27.109375 C 32.210938 -27.109375 24.714844 -29.980469 24.714844 -35.558594 C 24.714844 -37.632812 26.3125 -38.113281 27.425781 -37.472656 C 31.09375 -35.402344 35.402344 -34.921875 39.867188 -34.921875 C 55.492188 -34.921875 65.539062 -48 65.539062 -59.640625 C 65.539062 -70.164062 59 -79.730469 44.171875 -79.730469 C -1.59375 -79.730469 -14.828125 0 29.980469 0 Z M 35.71875 -46.882812 C 30.617188 -46.882812 28.226562 -49.910156 28.226562 -53.417969 C 28.226562 -57.726562 32.050781 -62.351562 38.269531 -62.351562 C 43.214844 -62.351562 45.605469 -59.320312 45.605469 -55.8125 C 45.605469 -51.824219 41.9375 -46.882812 35.71875 -46.882812 Z M 35.71875 -46.882812 "/></g></g></g><g fill="#454a64" fill-opacity="1"><g transform="translate(544.201555, 142.355088)"><g><path d="M 66.65625 -43.691406 C 63.464844 -38.910156 60.4375 -35.558594 55.652344 -35.558594 C 48.476562 -35.558594 45.765625 -38.910156 45.765625 -43.375 C 45.765625 -53.261719 52.621094 -59.957031 52.621094 -69.046875 C 52.621094 -77.65625 37.3125 -87.863281 22.324219 -87.863281 C 13.714844 -87.863281 8.132812 -80.050781 8.132812 -73.511719 C 8.132812 -67.773438 10.207031 -65.699219 13.394531 -64.582031 C 10.683594 -57.246094 6.699219 -48 3.667969 -43.691406 C 1.59375 -40.664062 8.769531 -35.558594 10.84375 -39.707031 C 13.394531 -44.96875 18.65625 -55.8125 21.527344 -62.191406 C 27.90625 -59.796875 29.980469 -55.8125 29.980469 -54.21875 C 29.980469 -46.5625 18.816406 -31.574219 18.816406 -16.742188 C 18.816406 -8.609375 23.28125 0 36.355469 0 C 57.886719 0 68.726562 -30.9375 73.832031 -39.707031 C 75.585938 -42.734375 69.207031 -47.519531 66.65625 -43.691406 Z M 66.65625 -43.691406 "/></g></g></g></svg>