<?xml version="1.0" encoding="UTF-8"?>
<svg xmlns="http://www.w3.org/2000/svg" xmlns:xlink="http://www.w3.org/1999/xlink" width="90px" height="30px" viewBox="0 0 90 30" version="1.1">
<defs>
<clipPath id="clip1">
  <path d="M 1.453125 0 L 88.546875 0 L 88.546875 29.03125 L 1.453125 29.03125 Z M 1.453125 0 "/>
</clipPath>
<clipPath id="clip2">
  <path d="M 2.902344 0 L 87.097656 0 C 87.898438 0 88.546875 0.648438 88.546875 1.453125 L 88.546875 27.582031 C 88.546875 28.382812 87.898438 29.03125 87.097656 29.03125 L 2.902344 29.03125 C 2.101562 29.03125 1.453125 28.382812 1.453125 27.582031 L 1.453125 1.453125 C 1.453125 0.648438 2.101562 0 2.902344 0 Z M 2.902344 0 "/>
</clipPath>
</defs>
<g id="surface1">
<g clip-path="url(#clip1)" clip-rule="nonzero">
<g clip-path="url(#clip2)" clip-rule="nonzero">
<path style=" stroke:none;fill-rule:nonzero;fill:rgb(80.784314%,64.313725%,49.411765%);fill-opacity:1;" d="M 1.453125 0 L 88.546875 0 L 88.546875 29.03125 L 1.453125 29.03125 Z M 1.453125 0 "/>
</g>
</g>
<path style=" stroke:none;fill-rule:nonzero;fill:rgb(27.058824%,29.019608%,39.215686%);fill-opacity:1;" d="M 26.304688 4.390625 C 25.792969 4.390625 25.070312 4.613281 23.589844 4.613281 C 22.171875 4.613281 21.304688 4.449219 19.394531 4.449219 C 13.980469 4.449219 10.996094 6.941406 10.996094 9.863281 C 10.996094 11.363281 11.882812 12.722656 13.570312 12.722656 C 15.566406 12.722656 16.636719 10.953125 16.265625 10.046875 C 15.8125 10.046875 15.484375 9.636719 15.484375 9.082031 C 15.484375 7.761719 17.128906 7.207031 18.960938 7.207031 C 21.304688 7.207031 21.921875 8.277344 23.859375 8.277344 C 25.957031 8.277344 27.109375 6.816406 27.109375 5.234375 C 27.109375 4.675781 26.921875 4.390625 26.304688 4.390625 Z M 22.953125 12.0625 C 22.5 12.0625 21.820312 12.085938 20.9375 12.105469 C 21.222656 11.261719 21.511719 10.398438 21.800781 9.472656 C 22.027344 8.792969 21.757812 8.359375 20.855469 8.359375 C 20.234375 8.359375 19.785156 8.628906 19.515625 9.347656 C 19.167969 10.210938 18.816406 11.199219 18.464844 12.144531 L 17.601562 12.144531 C 16.757812 12.144531 16.386719 12.597656 16.386719 13.195312 C 16.386719 13.628906 16.59375 13.957031 17.089844 13.957031 C 17.273438 13.957031 17.457031 13.976562 17.664062 13.996094 C 16.636719 15.707031 15.238281 16.40625 14.167969 16.40625 C 12.992188 16.40625 12.210938 15.789062 12.210938 14.882812 C 12.210938 14.738281 12.066406 14.636719 11.902344 14.636719 C 10.257812 14.636719 9.167969 16.300781 9.167969 17.988281 C 9.167969 19.699219 10.296875 21.445312 13.160156 21.445312 C 15.730469 21.445312 17.933594 19.738281 19.496094 15.992188 C 19.722656 15.480469 19.925781 14.945312 20.113281 14.410156 C 20.648438 14.472656 21.222656 14.511719 21.882812 14.511719 C 23.324219 14.511719 23.960938 13.523438 23.960938 12.824219 C 23.960938 12.394531 23.773438 12.0625 22.953125 12.0625 Z M 22.953125 12.0625 "/>
<path style=" stroke:none;fill-rule:nonzero;fill:rgb(27.058824%,29.019608%,39.215686%);fill-opacity:1;" d="M 34.203125 14.945312 C 33.710938 15.664062 33.15625 15.953125 32.558594 15.953125 L 32.414062 15.953125 C 32.621094 15.273438 32.722656 14.554688 32.722656 13.832031 C 32.722656 11.242188 31.40625 10.292969 29.71875 10.292969 C 26.449219 10.292969 24.0625 14.039062 24.0625 17.125 C 24.0625 19.265625 25.398438 20.582031 27.25 20.582031 C 28.792969 20.582031 30.253906 19.675781 31.28125 18.277344 L 31.53125 18.277344 C 33.527344 18.277344 34.535156 16.714844 35.128906 15.457031 C 35.355469 14.984375 34.453125 14.59375 34.203125 14.945312 Z M 28.421875 16.324219 C 27.640625 16.324219 27.351562 15.808594 27.351562 15.210938 C 27.351562 14.304688 28.03125 13.296875 29.039062 13.296875 C 29.84375 13.296875 30.171875 13.792969 30.171875 14.390625 C 30.171875 15.253906 29.453125 16.324219 28.421875 16.324219 Z M 28.421875 16.324219 "/>
<path style=" stroke:none;fill-rule:nonzero;fill:rgb(27.058824%,29.019608%,39.215686%);fill-opacity:1;" d="M 42.332031 14.945312 C 41.917969 15.5625 41.527344 15.992188 40.910156 15.992188 C 39.984375 15.992188 39.636719 15.5625 39.636719 14.984375 C 39.636719 13.710938 40.519531 12.84375 40.519531 11.671875 C 40.519531 10.5625 38.546875 9.246094 36.609375 9.246094 C 35.5 9.246094 34.78125 10.253906 34.78125 11.097656 C 34.78125 11.835938 35.046875 12.105469 35.457031 12.25 C 35.109375 13.195312 34.59375 14.390625 34.203125 14.945312 C 33.9375 15.335938 34.863281 15.992188 35.128906 15.457031 C 35.457031 14.78125 36.136719 13.378906 36.507812 12.558594 C 37.332031 12.867188 37.597656 13.378906 37.597656 13.585938 C 37.597656 14.574219 36.160156 16.507812 36.160156 18.421875 C 36.160156 19.472656 36.734375 20.582031 38.421875 20.582031 C 41.199219 20.582031 42.597656 16.589844 43.257812 15.457031 C 43.484375 15.066406 42.660156 14.449219 42.332031 14.945312 Z M 42.332031 14.945312 "/>
<path style=" stroke:none;fill-rule:nonzero;fill:rgb(27.058824%,29.019608%,39.215686%);fill-opacity:1;" d="M 44.039062 20.582031 C 45.5 20.582031 46.734375 19.246094 47.558594 17.578125 L 47.640625 17.578125 C 47.394531 19.285156 47.992188 20.582031 49.410156 20.582031 C 51.695312 20.582031 52.828125 17.371094 53.835938 15.457031 C 54.039062 15.066406 53.21875 14.449219 52.910156 14.945312 C 52.496094 15.601562 51.984375 15.992188 51.28125 15.992188 C 50.378906 15.992188 50.152344 15.171875 50.851562 13.667969 C 51.304688 12.476562 51.839844 11.835938 51.839844 11.054688 C 51.839844 10.601562 51.652344 10.292969 51.117188 10.292969 C 50.152344 10.292969 50.007812 11.074219 49.328125 11.074219 C 48.792969 11.074219 48.875 10.292969 47.230469 10.292969 C 43.691406 10.292969 41.921875 14.613281 41.921875 17.476562 C 41.921875 19.304688 42.640625 20.582031 44.039062 20.582031 Z M 46.097656 16.324219 C 45.460938 16.324219 45.070312 15.910156 45.070312 15.210938 C 45.070312 14.304688 45.75 13.296875 46.816406 13.296875 C 47.476562 13.296875 47.886719 13.710938 47.886719 14.390625 C 47.886719 15.253906 47.167969 16.324219 46.097656 16.324219 Z M 46.097656 16.324219 "/>
<path style=" stroke:none;fill-rule:nonzero;fill:rgb(27.058824%,29.019608%,39.215686%);fill-opacity:1;" d="M 63.296875 14.945312 C 62.699219 15.808594 61.917969 16.734375 61.300781 16.734375 C 60.828125 16.734375 60.457031 16.363281 60.746094 15.273438 C 61.589844 12.785156 62.414062 11.816406 62.414062 11.054688 C 62.414062 10.601562 62.226562 10.292969 61.691406 10.292969 C 60.726562 10.292969 60.582031 11.074219 59.902344 11.074219 C 59.367188 11.074219 59.449219 10.292969 57.804688 10.292969 C 54.265625 10.292969 52.496094 14.613281 52.496094 17.660156 C 52.496094 19.203125 53.421875 20.398438 54.839844 20.398438 C 55.890625 20.398438 57.0625 19.511719 57.617188 18.09375 C 57.804688 17.679688 58.175781 17.679688 58.175781 18.03125 C 58.175781 19.839844 56.488281 21.878906 54.59375 21.898438 C 53.214844 21.878906 52.371094 21.199219 52.269531 20.171875 C 52.226562 19.757812 50.765625 20.664062 50.765625 22.761719 C 50.765625 24.738281 52 25.953125 54.183594 25.953125 C 56.527344 25.953125 58.050781 24.347656 59.367188 20.128906 C 59.53125 20.417969 59.777344 20.582031 60.085938 20.582031 C 62.082031 20.582031 63.03125 17.96875 64.222656 15.457031 C 64.449219 14.984375 63.542969 14.59375 63.296875 14.945312 Z M 56.714844 16.324219 C 55.929688 16.324219 55.644531 15.808594 55.644531 15.210938 C 55.644531 14.304688 56.324219 13.296875 57.332031 13.296875 C 58.132812 13.296875 58.460938 13.792969 58.460938 14.390625 C 58.460938 15.253906 57.742188 16.324219 56.714844 16.324219 Z M 56.714844 16.324219 "/>
<path style=" stroke:none;fill-rule:nonzero;fill:rgb(27.058824%,29.019608%,39.215686%);fill-opacity:1;" d="M 66.691406 20.582031 C 69.078125 20.582031 71.261719 18.8125 73.070312 15.457031 C 73.296875 15.066406 72.472656 14.449219 72.144531 14.945312 C 71.21875 16.363281 69.550781 17.085938 68.152344 17.085938 C 66.980469 17.085938 66.011719 16.714844 66.011719 15.992188 C 66.011719 15.726562 66.21875 15.664062 66.363281 15.746094 C 66.835938 16.015625 67.390625 16.074219 67.96875 16.074219 C 69.984375 16.074219 71.28125 14.390625 71.28125 12.886719 C 71.28125 11.527344 70.4375 10.292969 68.523438 10.292969 C 62.617188 10.292969 60.910156 20.582031 66.691406 20.582031 Z M 67.433594 14.53125 C 66.773438 14.53125 66.464844 14.140625 66.464844 13.6875 C 66.464844 13.132812 66.960938 12.535156 67.761719 12.535156 C 68.398438 12.535156 68.707031 12.929688 68.707031 13.378906 C 68.707031 13.894531 68.234375 14.53125 67.433594 14.53125 Z M 67.433594 14.53125 "/>
<path style=" stroke:none;fill-rule:nonzero;fill:rgb(27.058824%,29.019608%,39.215686%);fill-opacity:1;" d="M 80.273438 14.945312 C 79.859375 15.5625 79.46875 15.992188 78.851562 15.992188 C 77.925781 15.992188 77.578125 15.5625 77.578125 14.984375 C 77.578125 13.710938 78.460938 12.84375 78.460938 11.671875 C 78.460938 10.5625 76.488281 9.246094 74.550781 9.246094 C 73.441406 9.246094 72.722656 10.253906 72.722656 11.097656 C 72.722656 11.835938 72.988281 12.105469 73.398438 12.25 C 73.050781 13.195312 72.535156 14.390625 72.144531 14.945312 C 71.878906 15.335938 72.804688 15.992188 73.070312 15.457031 C 73.398438 14.78125 74.078125 13.378906 74.449219 12.558594 C 75.273438 12.867188 75.539062 13.378906 75.539062 13.585938 C 75.539062 14.574219 74.101562 16.507812 74.101562 18.421875 C 74.101562 19.472656 74.675781 20.582031 76.363281 20.582031 C 79.140625 20.582031 80.539062 16.589844 81.199219 15.457031 C 81.425781 15.066406 80.601562 14.449219 80.273438 14.945312 Z M 80.273438 14.945312 "/>
</g>
</svg>
