<svg xmlns="http://www.w3.org/2000/svg" xmlns:xlink="http://www.w3.org/1999/xlink" width="1080" zoomAndPan="magnify" viewBox="0 0 810 809.999993" height="1080" preserveAspectRatio="xMidYMid meet" version="1.0"><defs><clipPath id="1a5295912a"><path d="M 121.277344 26.703125 L 689 26.703125 L 689 783.453125 L 121.277344 783.453125 Z M 121.277344 26.703125 " clip-rule="nonzero"/></clipPath></defs><g clip-path="url(#1a5295912a)"><path fill="#ea4335" d="M 404.996094 26.707031 C 248.527344 26.707031 121.277344 153.957031 121.277344 310.425781 C 121.277344 507.089844 377.378906 765.460938 388.257812 776.382812 C 392.890625 780.96875 398.941406 783.285156 404.996094 783.285156 C 411.046875 783.285156 417.101562 780.96875 421.734375 776.382812 C 432.609375 765.460938 688.710938 507.089844 688.710938 310.425781 C 688.710938 153.957031 561.464844 26.707031 404.996094 26.707031 Z M 404.996094 26.707031 " fill-opacity="1" fill-rule="nonzero"/></g><path fill="#b41412" d="M 546.855469 310.425781 C 546.855469 312.746094 546.796875 315.066406 546.683594 317.386719 C 546.570312 319.707031 546.398438 322.019531 546.171875 324.332031 C 545.941406 326.640625 545.660156 328.945312 545.320312 331.242188 C 544.976562 333.535156 544.582031 335.824219 544.128906 338.101562 C 543.675781 340.378906 543.167969 342.640625 542.601562 344.894531 C 542.039062 347.144531 541.417969 349.382812 540.746094 351.605469 C 540.070312 353.828125 539.34375 356.03125 538.5625 358.214844 C 537.777344 360.402344 536.945312 362.566406 536.054688 364.710938 C 535.167969 366.855469 534.226562 368.980469 533.234375 371.078125 C 532.242188 373.175781 531.199219 375.25 530.101562 377.296875 C 529.007812 379.34375 527.863281 381.363281 526.671875 383.355469 C 525.476562 385.347656 524.234375 387.308594 522.945312 389.238281 C 521.65625 391.167969 520.320312 393.066406 518.9375 394.929688 C 517.554688 396.796875 516.125 398.625 514.652344 400.417969 C 513.179688 402.214844 511.664062 403.972656 510.105469 405.691406 C 508.546875 407.410156 506.945312 409.09375 505.304688 410.734375 C 503.664062 412.375 501.980469 413.976562 500.261719 415.535156 C 498.542969 417.09375 496.785156 418.609375 494.988281 420.082031 C 493.195312 421.554688 491.363281 422.984375 489.5 424.367188 C 487.636719 425.75 485.738281 427.085938 483.808594 428.375 C 481.878906 429.667969 479.917969 430.90625 477.925781 432.101562 C 475.933594 433.296875 473.914062 434.4375 471.867188 435.535156 C 469.820312 436.628906 467.746094 437.671875 465.648438 438.664062 C 463.550781 439.65625 461.425781 440.597656 459.28125 441.484375 C 457.136719 442.375 454.972656 443.210938 452.785156 443.992188 C 450.601562 444.773438 448.394531 445.5 446.175781 446.175781 C 443.953125 446.847656 441.714844 447.46875 439.464844 448.03125 C 437.210938 448.597656 434.949219 449.105469 432.671875 449.558594 C 430.394531 450.011719 428.105469 450.40625 425.808594 450.75 C 423.515625 451.089844 421.210938 451.375 418.898438 451.601562 C 416.589844 451.828125 414.273438 452 411.957031 452.113281 C 409.636719 452.226562 407.316406 452.285156 404.996094 452.285156 C 402.671875 452.285156 400.355469 452.226562 398.035156 452.113281 C 395.714844 452 393.402344 451.828125 391.089844 451.601562 C 388.78125 451.375 386.476562 451.089844 384.179688 450.75 C 381.882812 450.40625 379.597656 450.011719 377.320312 449.558594 C 375.042969 449.105469 372.777344 448.597656 370.527344 448.03125 C 368.273438 447.46875 366.039062 446.847656 363.816406 446.175781 C 361.59375 445.5 359.390625 444.773438 357.203125 443.992188 C 355.019531 443.210938 352.851562 442.375 350.707031 441.484375 C 348.5625 440.597656 346.441406 439.65625 344.34375 438.664062 C 342.246094 437.671875 340.171875 436.628906 338.125 435.535156 C 336.078125 434.4375 334.058594 433.296875 332.066406 432.101562 C 330.074219 430.90625 328.113281 429.667969 326.183594 428.375 C 324.253906 427.085938 322.355469 425.75 320.492188 424.367188 C 318.625 422.984375 316.796875 421.554688 315 420.082031 C 313.207031 418.609375 311.449219 417.09375 309.730469 415.535156 C 308.007812 413.976562 306.328125 412.375 304.6875 410.734375 C 303.042969 409.09375 301.445312 407.410156 299.886719 405.691406 C 298.328125 403.972656 296.808594 402.214844 295.335938 400.417969 C 293.863281 398.625 292.4375 396.796875 291.054688 394.929688 C 289.671875 393.066406 288.335938 391.167969 287.042969 389.238281 C 285.753906 387.308594 284.511719 385.347656 283.320312 383.355469 C 282.125 381.363281 280.980469 379.34375 279.886719 377.296875 C 278.792969 375.25 277.75 373.175781 276.757812 371.078125 C 275.765625 368.980469 274.824219 366.855469 273.933594 364.710938 C 273.046875 362.566406 272.210938 360.402344 271.429688 358.214844 C 270.648438 356.03125 269.917969 353.828125 269.246094 351.605469 C 268.570312 349.382812 267.953125 347.144531 267.386719 344.894531 C 266.824219 342.640625 266.316406 340.378906 265.863281 338.101562 C 265.410156 335.824219 265.011719 333.535156 264.671875 331.242188 C 264.332031 328.945312 264.046875 326.640625 263.820312 324.332031 C 263.59375 322.019531 263.421875 319.707031 263.308594 317.386719 C 263.195312 315.066406 263.136719 312.746094 263.136719 310.425781 C 263.136719 308.105469 263.195312 305.785156 263.308594 303.464844 C 263.421875 301.144531 263.59375 298.832031 263.820312 296.519531 C 264.046875 294.210938 264.332031 291.90625 264.671875 289.609375 C 265.011719 287.3125 265.410156 285.027344 265.863281 282.75 C 266.316406 280.472656 266.824219 278.207031 267.386719 275.957031 C 267.953125 273.703125 268.570312 271.46875 269.246094 269.246094 C 269.917969 267.023438 270.648438 264.820312 271.429688 262.636719 C 272.210938 260.449219 273.046875 258.285156 273.933594 256.140625 C 274.824219 253.992188 275.765625 251.871094 276.757812 249.773438 C 277.75 247.675781 278.792969 245.601562 279.886719 243.554688 C 280.980469 241.507812 282.125 239.488281 283.320312 237.496094 C 284.511719 235.503906 285.753906 233.542969 287.042969 231.613281 C 288.335938 229.683594 289.671875 227.785156 291.054688 225.921875 C 292.4375 224.054688 293.863281 222.226562 295.335938 220.429688 C 296.808594 218.636719 298.328125 216.878906 299.886719 215.160156 C 301.445312 213.4375 303.042969 211.757812 304.6875 210.117188 C 306.328125 208.476562 308.007812 206.875 309.730469 205.316406 C 311.449219 203.757812 313.207031 202.242188 315 200.769531 C 316.796875 199.292969 318.625 197.867188 320.492188 196.484375 C 322.355469 195.101562 324.253906 193.765625 326.183594 192.476562 C 328.113281 191.183594 330.074219 189.941406 332.066406 188.75 C 334.058594 187.554688 336.078125 186.410156 338.125 185.316406 C 340.171875 184.222656 342.246094 183.179688 344.34375 182.1875 C 346.441406 181.195312 348.5625 180.253906 350.707031 179.367188 C 352.851562 178.476562 355.019531 177.640625 357.203125 176.859375 C 359.390625 176.078125 361.59375 175.347656 363.816406 174.675781 C 366.039062 174 368.273438 173.382812 370.527344 172.820312 C 372.777344 172.253906 375.042969 171.746094 377.320312 171.292969 C 379.597656 170.839844 381.882812 170.441406 384.179688 170.101562 C 386.476562 169.761719 388.78125 169.476562 391.089844 169.25 C 393.402344 169.023438 395.714844 168.851562 398.035156 168.738281 C 400.355469 168.625 402.671875 168.566406 404.996094 168.566406 C 407.316406 168.566406 409.636719 168.625 411.957031 168.738281 C 414.273438 168.851562 416.589844 169.023438 418.898438 169.25 C 421.210938 169.476562 423.515625 169.761719 425.808594 170.101562 C 428.105469 170.441406 430.394531 170.839844 432.671875 171.292969 C 434.949219 171.746094 437.210938 172.253906 439.464844 172.820312 C 441.714844 173.382812 443.953125 174 446.175781 174.675781 C 448.394531 175.347656 450.601562 176.078125 452.785156 176.859375 C 454.972656 177.640625 457.136719 178.476562 459.28125 179.367188 C 461.425781 180.253906 463.550781 181.195312 465.648438 182.1875 C 467.746094 183.179688 469.820312 184.222656 471.867188 185.316406 C 473.914062 186.410156 475.933594 187.554688 477.925781 188.75 C 479.917969 189.941406 481.878906 191.183594 483.808594 192.476562 C 485.738281 193.765625 487.636719 195.101562 489.5 196.484375 C 491.363281 197.867188 493.195312 199.292969 494.988281 200.769531 C 496.785156 202.242188 498.542969 203.757812 500.261719 205.316406 C 501.980469 206.875 503.664062 208.476562 505.304688 210.117188 C 506.945312 211.757812 508.546875 213.4375 510.105469 215.160156 C 511.664062 216.878906 513.179688 218.636719 514.652344 220.429688 C 516.125 222.226562 517.554688 224.054688 518.9375 225.921875 C 520.320312 227.785156 521.65625 229.683594 522.945312 231.613281 C 524.234375 233.542969 525.476562 235.503906 526.671875 237.496094 C 527.863281 239.488281 529.007812 241.507812 530.101562 243.554688 C 531.199219 245.601562 532.242188 247.675781 533.234375 249.773438 C 534.226562 251.871094 535.167969 253.992188 536.054688 256.140625 C 536.945312 258.285156 537.777344 260.449219 538.5625 262.636719 C 539.34375 264.820312 540.070312 267.023438 540.746094 269.246094 C 541.417969 271.46875 542.039062 273.703125 542.601562 275.957031 C 543.167969 278.207031 543.675781 280.472656 544.128906 282.75 C 544.582031 285.027344 544.976562 287.3125 545.320312 289.609375 C 545.660156 291.90625 545.941406 294.210938 546.171875 296.519531 C 546.398438 298.832031 546.570312 301.144531 546.683594 303.464844 C 546.796875 305.785156 546.855469 308.105469 546.855469 310.425781 Z M 546.855469 310.425781 " fill-opacity="1" fill-rule="nonzero"/></svg>