<?xml version="1.0" encoding="iso-8859-1"?>
<!-- Uploaded to: SVG Repo, www.svgrepo.com, Generator: SVG Repo Mixer Tools -->
<svg height="800px" width="800px" version="1.1" id="Layer_1" xmlns="http://www.w3.org/2000/svg" xmlns:xlink="http://www.w3.org/1999/xlink" 
	 viewBox="0 0 512 512" xml:space="preserve">
<path style="fill:#401409;" d="M437.073,140.488c0,51.643-42.015,93.659-93.659,93.659h-4.479
	c22.013-23.817,35.699-57.002,35.699-93.659h-37.463c0,44.204-26.685,81.327-62.439,91.114v-91.114h-37.463v91.114
	c-35.754-9.787-62.439-46.909-62.439-91.114h-37.463c0,36.657,13.685,69.842,35.699,93.659h-4.479
	c-51.643,0-93.659-42.015-93.659-93.659H37.463c0,72.302,58.82,131.122,131.122,131.122h28.925
	c-14.03,14.597-22.682,34.399-22.682,56.195h37.463c0-17.401,10.223-32.453,24.976-39.481v176.847h37.463V288.323
	c14.752,7.028,24.974,22.082,24.974,39.481h37.463c0-21.796-8.652-41.598-22.682-56.195h28.927
	c72.301,0,131.122-58.82,131.122-131.122H437.073z"/>
<g>
	<path style="fill:#FF5023;" d="M56.195,46.829C25.209,46.829,0,72.038,0,103.024s25.209,56.195,56.195,56.195
		s56.195-25.209,56.195-56.195S87.181,46.829,56.195,46.829z"/>
	<path style="fill:#FF5023;" d="M455.805,46.829c-30.986,0-56.195,25.209-56.195,56.195s25.209,56.195,56.195,56.195
		S512,134.01,512,103.024S486.791,46.829,455.805,46.829z"/>
</g>
<g>
	<path style="fill:#802812;" d="M355.902,46.829c-30.986,0-56.195,25.209-56.195,56.195s25.209,56.195,56.195,56.195
		s56.195-25.209,56.195-56.195S386.888,46.829,355.902,46.829z"/>
	<path style="fill:#802812;" d="M156.098,46.829c-30.986,0-56.195,25.209-56.195,56.195s25.209,56.195,56.195,56.195
		s56.195-25.209,56.195-56.195S187.084,46.829,156.098,46.829z"/>
</g>
<path style="fill:#FF5023;" d="M256,46.829c-30.986,0-56.195,25.209-56.195,56.195S225.014,159.22,256,159.22
	s56.195-25.209,56.195-56.195S286.986,46.829,256,46.829z"/>
</svg>