<?xml version="1.0" encoding="iso-8859-1"?>
<!-- Uploaded to: SVG Repo, www.svgrepo.com, Generator: SVG Repo Mixer Tools -->
<svg height="800px" width="800px" version="1.1" id="Layer_1" xmlns="http://www.w3.org/2000/svg" xmlns:xlink="http://www.w3.org/1999/xlink" 
	 viewBox="0 0 511.999 511.999" xml:space="preserve">
<polygon style="fill:#FF9811;" points="234.521,100.828 203.918,80.427 184.857,109.018 148.978,109.018 139.278,50.824 
	102.998,56.87 107.603,84.497 60.027,84.497 40.13,34.756 5.982,48.417 35.126,121.278 113.733,121.278 127.518,203.993 
	163.799,197.946 155.108,145.798 204.541,145.798 "/>
<polygon style="fill:#BF720D;" points="506.02,48.417 471.87,34.756 451.973,84.497 404.398,84.497 409.003,56.87 372.723,50.824 
	363.024,109.018 327.143,109.018 308.082,80.427 277.479,100.828 307.459,145.798 356.894,145.798 348.202,197.946 384.483,203.993 
	398.268,121.278 476.875,121.278 "/>
<path style="fill:#402604;" d="M503.68,243.804c-4.67-6.255-47.012-61.115-95.063-61.226h-0.153
	c-39.641,0-71.961,32.249-72.048,71.887c-0.043,19.245,7.41,37.356,20.987,50.994c13.577,13.637,31.652,21.171,50.897,21.215h0.141
	c47.256,0,90.344-54.473,95.102-60.684l8.456-11.04L503.68,243.804z"/>
<path style="fill:#BF720D;" d="M408.383,289.893c-9.421-0.021-18.268-3.709-24.913-10.384c-6.646-6.674-10.294-15.54-10.273-24.961
	c0.042-19.403,15.862-35.188,35.339-35.188c19.409,0.045,42.554,20.477,56.276,35.344c-13.89,14.83-37.204,35.189-56.371,35.189
	H408.383z"/>
<path style="fill:#804C09;" d="M0,254.949l8.457,11.04c4.758,6.211,47.847,60.684,95.102,60.684h0.141
	c19.244-0.043,37.319-7.578,50.897-21.215c13.577-13.638,21.03-31.749,20.987-50.994c-0.086-39.637-32.407-71.887-72.048-71.887
	h-0.153c-48.051,0.112-90.393,54.971-95.063,61.226L0,254.949z"/>
<path style="fill:#FF9811;" d="M103.56,289.893c-19.168,0-42.48-20.359-56.37-35.189c13.722-14.867,36.866-35.298,56.276-35.344
	c19.477,0,35.297,15.785,35.339,35.188c0.022,9.422-3.627,18.286-10.273,24.961c-6.645,6.674-15.493,10.364-24.913,10.384H103.56z"
	/>
<path style="fill:#FFD6A0;" d="M388.405,209.913c-35.582-26.687-82.603-41.383-132.404-41.383s-96.824,14.696-132.404,41.383
	c-37.163,27.871-57.629,65.424-57.629,105.739c0,50.626,33.088,94.692,95.689,127.436c44.617,23.337,88.64,32.93,90.491,33.328
	l3.853,0.825l3.853-0.825c1.853-0.397,45.874-9.99,90.493-33.328c62.601-32.745,95.689-76.81,95.689-127.436
	C446.034,275.337,425.567,237.784,388.405,209.913z"/>
<path style="fill:#FFC170;" d="M388.405,209.913c-35.582-26.687-82.603-41.383-132.404-41.383v308.712l3.853-0.825
	c1.853-0.397,45.874-9.99,90.493-33.328c62.601-32.745,95.689-76.81,95.689-127.436
	C446.034,275.337,425.567,237.784,388.405,209.913z"/>
<circle cx="151.794" cy="317.44" r="18.39"/>
<circle cx="360.217" cy="317.44" r="18.39"/>
<path style="fill:#804C09;" d="M256.001,270.702c22.344-40.28,63.042-68.951,110.798-74.759
	c-32.06-17.796-70.52-27.413-110.798-27.413s-78.738,9.618-110.798,27.413C192.959,201.75,233.656,230.422,256.001,270.702z"/>
<path style="fill:#402604;" d="M256.001,168.53v102.172c22.344-40.28,63.042-68.951,110.798-74.759
	C334.737,178.148,296.279,168.53,256.001,168.53z"/>
<circle style="fill:#BF720D;" cx="256.006" cy="384.871" r="61.301"/>
<path style="fill:#804C09;" d="M256.001,323.572c33.855,0,61.301,27.446,61.301,61.301s-27.446,61.301-61.301,61.301"/>
<path d="M268.261,366.482h-12.26h-12.26c-6.771,0-12.26,5.489-12.26,12.26c0,12.26,24.52,24.52,24.52,24.52s24.52-12.26,24.52-24.52
	C280.521,371.971,275.032,366.482,268.261,366.482z"/>
</svg>