<?xml version="1.0" encoding="iso-8859-1"?>
<!-- Uploaded to: SVG Repo, www.svgrepo.com, Generator: SVG Repo Mixer Tools -->
<svg height="800px" width="800px" version="1.1" id="Layer_1" xmlns="http://www.w3.org/2000/svg" xmlns:xlink="http://www.w3.org/1999/xlink" 
	 viewBox="0 0 512 512" xml:space="preserve">
<path style="fill:#FFFFFF;" d="M367.001,189.192c19.881-43.273,35.203-85.942,38.195-98.894
	c5.036-21.799-8.605-43.631-30.404-48.667c-3.027-0.699-6.118-1.054-9.183-1.054c-18.97,0-35.206,12.936-39.484,31.459
	c-2.991,12.951-7.933,58.017-9.042,105.627c-1.136,48.723,2.41,75.779,5.881,88.374
	C331.604,256.239,346.655,233.476,367.001,189.192z"/>
<path style="fill:#FF9811;" d="M383.923,2.095C377.904,0.705,371.741,0,365.608,0c-37.972,0-70.466,25.868-79.019,62.904
	c-4.492,19.451-9.814,75.902-10.267,125.807c-0.734,80.89,9.756,116.376,36.212,122.487c2.193,0.506,4.457,0.763,6.73,0.763
	c0.001,0,0,0,0.001,0c17.182,0,40.24-11.65,80.976-98.02c20.84-44.184,40.175-95.811,44.494-114.509
	C454.801,55.831,427.524,12.166,383.923,2.095z"/>
<path style="fill:#FFD6A0;" d="M317.082,177.662c1.109-47.609,6.051-92.675,9.042-105.627c4.278-18.522,20.514-31.458,39.484-31.458
	c3.066,0,6.156,0.356,9.183,1.054c21.801,5.037,35.44,26.867,30.404,48.667c-2.991,12.952-18.314,55.621-38.195,98.894
	c-20.345,44.284-35.397,67.046-44.039,76.843C319.492,253.442,315.946,226.385,317.082,177.662z"/>
<path style="fill:#FFC170;" d="M235.679,188.709c-0.454-49.904-5.775-106.356-10.267-125.807C216.857,25.868,184.363,0,146.391,0
	c-6.134,0-12.296,0.705-18.315,2.095c-43.6,10.071-70.878,53.736-60.81,97.336c4.319,18.698,23.654,70.324,44.494,114.509
	c40.738,86.373,63.795,98.02,80.977,98.02c2.274,0,4.538-0.256,6.73-0.763C225.923,305.085,236.414,269.599,235.679,188.709z"/>
<g>
	<path style="fill:#FFEACF;" d="M106.803,90.298c-5.036-21.799,8.605-43.631,30.404-48.667c3.028-0.699,6.119-1.054,9.184-1.054
		c18.97,0,35.206,12.936,39.484,31.459c2.991,12.951,7.933,58.017,9.042,105.627c1.136,48.723-2.41,75.779-5.88,88.374
		c-8.643-9.797-23.694-32.559-44.039-76.843C125.117,145.92,109.794,103.25,106.803,90.298z"/>
	<path style="fill:#FFEACF;" d="M411.096,232.649C369.397,203.46,314.317,187.385,256,187.385s-113.397,16.075-155.096,45.263
		c-43.9,30.732-68.077,72.297-68.077,117.044s24.177,86.314,68.077,117.044C142.603,495.925,197.683,512,256,512
		s113.397-16.075,155.096-45.263c43.9-30.732,68.077-72.297,68.077-117.044S454.996,263.38,411.096,232.649z"/>
</g>
<path style="fill:#FFD6A0;" d="M255.999,512c58.317,0,113.397-16.075,155.096-45.263c43.9-30.732,68.077-72.297,68.077-117.044
	s-24.177-86.312-68.077-117.044c-41.698-29.188-96.778-45.263-155.096-45.263"/>
<g>
	<circle style="fill:#401409;" cx="168.082" cy="322.64" r="20.288"/>
	<circle style="fill:#401409;" cx="343.915" cy="322.64" r="20.288"/>
	<path style="fill:#401409;" d="M269.524,383.507h-13.526h-13.526c-7.47,0-13.526,6.055-13.526,13.526
		c0,13.526,27.051,27.051,27.051,27.051s27.051-13.526,27.051-27.051C283.05,389.562,276.994,383.507,269.524,383.507z"/>
</g>
</svg>