<?xml version="1.0" encoding="iso-8859-1"?>
<!-- Uploaded to: SVG Repo, www.svgrepo.com, Generator: SVG Repo Mixer Tools -->
<svg height="800px" width="800px" version="1.1" id="Layer_1" xmlns="http://www.w3.org/2000/svg" xmlns:xlink="http://www.w3.org/1999/xlink" 
	 viewBox="0 0 512 512" xml:space="preserve">
<path style="fill:#CDCDD0;" d="M233.739,400.696h-44.522v-267.13c0-16.366-13.315-29.681-29.681-29.681V59.362
	c40.915,0,74.203,33.287,74.203,74.203V400.696z"/>
<path style="fill:#DEDDE0;" d="M122.435,133.565c-36.824,0-66.783-29.959-66.783-66.783S85.611,0,122.435,0
	s66.783,29.959,66.783,66.783S159.259,133.565,122.435,133.565z"/>
<path style="fill:#401409;" d="M122.435,44.522c-12.275,0-22.261,9.986-22.261,22.261s9.986,22.261,22.261,22.261
	s22.261-9.986,22.261-22.261S134.709,44.522,122.435,44.522z"/>
<path style="fill:#BDBCC1;" d="M322.783,400.696h-44.522v-267.13c0-40.915,33.287-74.203,74.203-74.203v44.522
	c-16.366,0-29.681,13.315-29.681,29.681V400.696z"/>
<path style="fill:#CDCDD0;" d="M389.565,133.565c-36.824,0-66.783-29.959-66.783-66.783S352.741,0,389.565,0
	s66.783,29.959,66.783,66.783S426.389,133.565,389.565,133.565z"/>
<path style="fill:#401409;" d="M389.565,44.522c-12.275,0-22.261,9.986-22.261,22.261s9.986,22.261,22.261,22.261
	c12.275,0,22.261-9.986,22.261-22.261S401.84,44.522,389.565,44.522z"/>
<path style="fill:#DEDDE0;" d="M256,155.826c-77.739,0-140.986,63.246-140.986,140.986V512h281.971V296.812
	C396.986,219.072,333.739,155.826,256,155.826z"/>
<path style="fill:#CDCDD0;" d="M256,155.826V512h140.986V296.812C396.986,219.072,333.739,155.826,256,155.826z"/>
<path style="fill:#401409;" d="M256,363.594c-36.824,0-66.783-29.957-66.783-66.783h44.522c0,12.275,9.986,22.261,22.261,22.261
	c12.275,0,22.261-9.986,22.261-22.261h44.522C322.783,333.637,292.824,363.594,256,363.594z"/>
</svg>