<?xml version="1.0" encoding="iso-8859-1"?>
<!-- Uploaded to: SVG Repo, www.svgrepo.com, Generator: SVG Repo Mixer Tools -->
<svg height="800px" width="800px" version="1.1" id="Layer_1" xmlns="http://www.w3.org/2000/svg" xmlns:xlink="http://www.w3.org/1999/xlink" 
	 viewBox="0 0 512 512" xml:space="preserve">
<g>
	<polygon style="fill:#401409;" points="365.951,342.845 340.21,317.104 274.203,383.11 274.203,269.299 237.797,269.299 
		237.797,383.11 171.79,317.104 146.049,342.845 237.797,434.594 237.797,512 274.203,512 274.203,434.594 	"/>
	<polygon style="fill:#401409;" points="319.114,62.901 274.203,140.691 274.203,36.405 237.797,36.405 237.797,140.691 
		192.886,62.901 161.359,81.105 240.237,217.725 256,208.624 271.763,217.725 350.641,81.105 	"/>
</g>
<circle style="fill:#FF9811;" cx="256.001" cy="30.338" r="30.338"/>
<path style="fill:#BF720D;" d="M256,0c16.756,0,30.338,13.582,30.338,30.338S272.756,60.675,256,60.675"/>
<circle style="fill:#FF9811;" cx="174.09" cy="66.743" r="30.338"/>
<circle style="fill:#BF720D;" cx="337.913" cy="66.743" r="30.338"/>
<path style="fill:#FF5023;" d="M407.261,148.385l-1.235-13.799l-13.63-2.485c-0.527-0.096-13.123-2.357-30.421-2.357
	c-25.579,0-61.464,4.923-87.154,28.375c-7.291,6.655-13.579,14.75-18.82,24.063c-5.24-9.311-11.531-17.407-18.82-24.061
	c-25.689-23.453-61.573-28.375-87.154-28.375c-17.297,0-29.895,2.261-30.421,2.357l-13.629,2.485l-1.237,13.799
	c-0.068,0.765-1.637,18.973,1.746,41.594c4.683,31.306,16.733,56.595,34.848,73.133c25.689,23.451,61.575,28.375,87.155,28.375
	c0,0,0.004,0,0.006,0c12.64,0,22.763-1.207,27.505-1.894c4.742,0.687,14.868,1.894,27.511,1.894
	c25.581,0,61.465-4.923,87.155-28.377c18.115-16.538,30.164-41.826,34.848-73.133C408.898,167.358,407.329,149.15,407.261,148.385z"
	/>
<path style="fill:#BF3C1A;" d="M407.261,148.385l-1.235-13.799l-13.63-2.485c-0.527-0.096-13.123-2.357-30.421-2.357
	c-25.579,0-61.464,4.923-87.154,28.375c-7.291,6.655-13.579,14.75-18.82,24.063v107.411c4.742,0.687,14.868,1.894,27.511,1.894
	c25.581,0,61.465-4.923,87.155-28.377c18.115-16.538,30.164-41.826,34.848-73.133C408.898,167.358,407.329,149.15,407.261,148.385z"
	/>
</svg>