<?xml version="1.0" encoding="iso-8859-1"?>
<!-- Uploaded to: SVG Repo, www.svgrepo.com, Generator: SVG Repo Mixer Tools -->
<svg version="1.1" id="Layer_1" xmlns="http://www.w3.org/2000/svg" xmlns:xlink="http://www.w3.org/1999/xlink" 
	 viewBox="0 0 512.003 512.003" xml:space="preserve">
<polygon style="fill:#401409;" points="411.814,210.237 384.18,182.603 275.542,291.24 275.542,234.801 355.798,154.547 
	328.163,126.912 275.542,179.532 275.542,88.62 236.461,88.62 236.461,179.532 183.84,126.912 156.206,154.547 236.461,234.801 
	236.461,290.588 128.475,182.603 100.841,210.237 236.461,345.857 236.461,492.459 275.542,492.459 275.542,346.508 "/>
<path style="fill:#FF5023;" d="M266.842,7.227L256.003,0l-10.839,7.227c-7.979,5.319-47.782,33.615-47.785,68.366
	c0,34.752,39.804,63.047,47.783,68.366l10.839,7.226l10.839-7.226c7.979-5.319,47.783-33.615,47.783-68.365
	C314.623,40.841,274.821,12.546,266.842,7.227z"/>
<path style="fill:#BF3C1A;" d="M410.14,293.823l-10.84-7.227l-10.839,7.227c-7.979,5.319-47.782,33.615-47.785,68.366
	c0,34.752,39.804,63.048,47.783,68.366l10.839,7.226l10.839-7.226c7.979-5.319,47.783-33.615,47.783-68.365
	C457.921,327.438,418.119,299.142,410.14,293.823z"/>
<path style="fill:#FF5023;" d="M168.644,334.471l-2.555-12.774l-12.773-2.556c-0.547-0.109-13.591-2.682-29.166-2.682
	c-23.707,0-41.526,5.798-52.965,17.235c-24.574,24.573-16.436,72.728-14.555,82.13l2.555,12.774l12.773,2.556
	c0.547,0.109,13.591,2.682,29.166,2.682c23.707,0,41.526-5.798,52.964-17.236C178.661,392.027,170.524,343.874,168.644,334.471z"/>
<g>
	<path style="fill:#BF3C1A;" d="M455.374,152.091l-2.555-12.776l-12.774-2.555c-0.547-0.109-13.59-2.682-29.161-2.682
		c-23.709,0-41.53,5.8-52.969,17.239c-24.573,24.572-16.436,72.726-14.555,82.129l2.555,12.774l12.774,2.556
		c0.547,0.109,13.591,2.682,29.164,2.682c23.708,0,41.528-5.8,52.965-17.237C465.393,209.648,457.255,161.494,455.374,152.091z"/>
	<path style="fill:#BF3C1A;" d="M403.266,93.469l-2.555-12.776l-12.774-2.555c-0.547-0.109-13.59-2.682-29.161-2.682
		c-23.709,0-41.53,5.8-52.969,17.239c-24.573,24.572-16.436,72.726-14.555,82.129l2.555,12.774l12.774,2.556
		c0.547,0.109,13.591,2.682,29.164,2.682c23.708,0,41.528-5.8,52.965-17.237C413.285,151.027,405.147,102.872,403.266,93.469z"/>
</g>
<g>
	<path style="fill:#FF5023;" d="M154.088,151.318c-11.439-11.439-29.26-17.239-52.969-17.239c-15.571,0-28.613,2.573-29.161,2.682
		l-12.774,2.555l-2.555,12.776c-0.109,0.547-2.682,13.591-2.682,29.164c0,23.708,5.8,41.529,17.237,52.967
		s29.257,17.237,52.967,17.237c15.573,0,28.617-2.573,29.164-2.682l12.774-2.556l2.555-12.774
		c0.111-0.547,2.682-13.591,2.684-29.164C171.325,180.576,165.526,162.756,154.088,151.318z"/>
	<path style="fill:#FF5023;" d="M206.196,92.697c-11.439-11.439-29.26-17.239-52.969-17.239c-15.571,0-28.613,2.573-29.161,2.682
		l-12.774,2.555l-2.555,12.776c-0.111,0.547-2.682,13.591-2.682,29.164c0,23.708,5.8,41.529,17.237,52.967
		c11.438,11.438,29.259,17.237,52.967,17.237c15.573,0,28.617-2.573,29.164-2.682l12.774-2.556l2.555-12.774
		c0.111-0.547,2.682-13.591,2.684-29.164C223.434,121.954,217.634,104.134,206.196,92.697z"/>
</g>
<rect x="21.514" y="472.921" style="fill:#806D22;" width="468.974" height="39.081"/>
<rect x="255.996" y="472.921" style="fill:#403711;" width="234.487" height="39.081"/>
<path style="fill:#BF3C1A;" d="M256.001,151.187l10.839-7.226c7.979-5.319,47.783-33.615,47.783-68.365
	c0-34.754-39.802-63.048-47.781-68.367L256.003,0"/>
</svg>