<?xml version="1.0" encoding="iso-8859-1"?>
<!-- Uploaded to: SVG Repo, www.svgrepo.com, Generator: SVG Repo Mixer Tools -->
<svg version="1.1" id="Layer_1" xmlns="http://www.w3.org/2000/svg" xmlns:xlink="http://www.w3.org/1999/xlink" 
	 viewBox="0 0 511.996 511.996" xml:space="preserve">
<g>
	<path style="fill:#BF720D;" d="M327.648,314.964c-36.12,0-60.968,22.774-71.65,34.918v35.345
		c10.866,13.184,35.604,37.211,71.65,37.211c53.326,0,84.856-42.806,86.171-44.628l7.873-10.901l-8.271-10.603
		C412.104,354.618,380.565,314.964,327.648,314.964z"/>
	<path style="fill:#BF720D;" d="M327.648,183.606c-36.12,0-60.968,22.774-71.65,34.918v35.345
		c10.866,13.184,35.604,37.211,71.65,37.211c53.326,0,84.856-42.806,86.171-44.628l7.873-10.901l-8.271-10.603
		C412.104,223.26,380.565,183.606,327.648,183.606z"/>
</g>
<g>
	<path style="fill:#FF9811;" d="M184.349,314.964c36.12,0,60.968,22.774,71.65,34.918v35.345
		c-10.866,13.184-35.604,37.211-71.65,37.211c-53.326,0-84.856-42.806-86.171-44.628l-7.873-10.901l8.271-10.603
		C99.892,354.618,131.431,314.964,184.349,314.964z"/>
	<path style="fill:#FF9811;" d="M184.349,183.606c36.12,0,60.968,22.774,71.65,34.918v35.345
		c-10.866,13.184-35.604,37.211-71.65,37.211c-53.326,0-84.856-42.806-86.171-44.628l-7.873-10.901l8.271-10.603
		C99.892,223.26,131.431,183.606,184.349,183.606z"/>
	<path style="fill:#FF9811;" d="M244.549,171.551l9.693,6.589l9.921-6.244c1.861-1.171,45.573-29.247,45.573-77.852
		c0-53.326-42.806-84.855-44.628-86.171L254.206,0l-10.603,8.271c-1.687,1.317-41.342,32.856-41.342,85.774
		C202.261,142.246,242.821,170.377,244.549,171.551z"/>
</g>
<path style="fill:#BF720D;" d="M254.242,178.141l9.921-6.244c1.861-1.171,45.573-29.247,45.573-77.852
	c0-53.326-42.806-84.855-44.628-86.171L254.206,0L254.242,178.141z"/>
<rect x="238.089" y="121.506" style="fill:#401409;" width="35.825" height="390.491"/>
</svg>